# xmcd
#
# Track frame offsets: 
#        150
#        28459
#        50700
#        76580
#        105454
#        133217
#        145852
#        189013
#        209909
#        244864
#        260031
#        291502
#        326986
#
# Disc length: 4798 seconds
#
# Revision: 0
# Processed by: cddbd v1.5.2PL0 Copyright (c) Steve Scherf et al.
# Submitted via: ExactAudioCopy v0.95b4
#
DISCID=d212bc0d
DTITLE=Will Tang - Blues
DYEAR=2010
DGENRE=Blues
TTITLE0=Walkin' Round
TTITLE1=Liddle Stella
TTITLE2=Get Away Blues
TTITLE3=Mercy Blues
TTITLE4=She's Mine
TTITLE5=Time Of Day (Harp Cut)
TTITLE6=Lazy Day Blues
TTITLE7=Don't Wanna Talk
TTITLE8=Trouble At My Door
TTITLE9=The Other Side (Acoustic)
TTITLE10=Hard Times
TTITLE11=Make My Way
TTITLE12=Cold Cold
EXTD=
EXTT0=
EXTT1=
EXTT2=
EXTT3=
EXTT4=
EXTT5=
EXTT6=
EXTT7=
EXTT8=
EXTT9=
EXTT10=
EXTT11=
EXTT12=
PLAYORDER=
